<?xml version="1.0" encoding="UTF-8"?>
<svg id="Layer_1" xmlns="http://www.w3.org/2000/svg" xmlns:xlink="http://www.w3.org/1999/xlink" viewBox="0 0 32 32">
  <defs>
    <style>
      .cls-1 {
        fill: url(#linear-gradient-2);
      }

      .cls-2 {
        fill: url(#linear-gradient);
      }
    </style>
    <linearGradient id="linear-gradient" x1=".47" y1="29.18" x2="24.49" y2="-7.39" gradientUnits="userSpaceOnUse">
      <stop offset="0" stop-color="#7562ab"/>
      <stop offset="1" stop-color="#00b6d3"/>
    </linearGradient>
    <linearGradient id="linear-gradient-2" x1="8.18" y1="34.24" x2="32.2" y2="-2.33" xlink:href="#linear-gradient"/>
  </defs>
  <path class="cls-2" d="M10.92,14.37c-1.7,2.63-3.95,5.37-6.3,5.37-6.37,0-.97-14.89,5.82-14.86,1.28,0,2.01.69,2.42,1.77l.1-.35c.28-.9,1.38-1.39,2.29-1.39.97,0,1.77.52,1.42,1.52-1.38,3.88-4.74,12.71-3.12,12.71,1.9,0,5.4-5.54,6.68-7.79.17-.31.42-.42.62-.42.35,0,.66.31.42.73-1.59,2.74-5.23,8.73-7.97,8.73-2.53,0-2.87-2.77-2.39-6.03ZM10.43,6.44c-2.98-.07-7.1,11.71-4.74,11.71,2.08-.03,5.13-5.64,5.96-7.31l.31-1.18c.17-1.28-.14-3.19-1.52-3.22Z"/>
  <path class="cls-1" d="M23.53,4.85c.87,0,1.66.45,1.49,1.18-.59,2.49-1.45,7.24-2.91,12.02,3.71-1.39,5.02-3.29,6.93-6.68.17-.31.42-.42.66-.42.38,0,.69.31.45.73-2.46,4.19-4.05,6.16-8.45,7.72-1.97,6.61-4.95,12.61-9.56,12.61-1.63,0-2.04-1.66-1.84-3.22.45-3.29,2.98-6.58,6.03-8.35.55-.31,1.14-.59,1.66-.83,1.7-5.68,3.01-11.71,3.46-13.4.24-.94,1.21-1.35,2.08-1.35ZM17.57,21.02l-.24.1-.42.24-.24.1c-2.6,1.52-4.81,4.29-5.19,7.13-.07.87,0,2.15,1,2.15,1.59,0,3.43-4.43,5.09-9.73ZM22.35,1.9c.28-1.07,1.32-1.9,2.29-1.9s1.56.83,1.25,1.9c-.21,1.04-1.25,1.87-2.25,1.87s-1.52-.83-1.28-1.87Z"/>
</svg>